HIERARCHY
ROOT Hips
{
	OFFSET	0.00	0.00	0.00
	CHANNELS 6 Xposition Yposition Zposition Zrotation Xrotation Yrotation
	JOINT Spine
	{
		OFFSET	 0.00	0.01	 0.00
		CHANNELS 3 Zrotation Xrotation Yrotation
		JOINT Spine1
		{
			OFFSET	 0.00	 2.45913012437421	 0.00
			CHANNELS 3 Zrotation Xrotation Yrotation
            JOINT Neck
            {
                OFFSET	 0.00	 2.48462964506057	 0.00
                CHANNELS 3 Zrotation Xrotation Yrotation
                JOINT Head
                {
                    OFFSET	 0.00	 0.927524780924562	 0.00
                    CHANNELS 3 Zrotation Xrotation Yrotation
                    End Site 
                    {
                        OFFSET	 0.00	 1.14999962169752	 0.00
                    }
                }
            }
			JOINT LeftShoulder
			{
				OFFSET	 0.00	 2.48462964506057	 0.00
				CHANNELS 3 Zrotation Xrotation Yrotation
				JOINT LeftUpArm
				{
					OFFSET	 0.00	 1.24881979654096	 0.00
					CHANNELS 3 Zrotation Xrotation Yrotation
					JOINT LeftForeArm
					{
						OFFSET	 0.00	2.59758046908119	 0.00
						CHANNELS 3 Zrotation Xrotation Yrotation
						JOINT LeftHand
						{
							OFFSET	 0.00	2.45542024364365	 0.00
							CHANNELS 3 Zrotation Xrotation Yrotation
							JOINT LeftHandThumb 
							{
								OFFSET	 0.00	0.00	 0.00
								CHANNELS 3 Zrotation Xrotation Yrotation
								End Site
								{
									OFFSET	 0.00	0.00	1.00000003353624
								}
							}
							JOINT L_Wrist_End 
							{
								OFFSET	 0.00	0.99999967115358	 0.00
								CHANNELS 3 Zrotation Xrotation Yrotation
								End Site 
								{
									OFFSET	 0.00	 0.00	 0.00
								}
							}
						}
					}
				}
			}
			JOINT RightShoulder
			{
				OFFSET	 0.00	 2.48462964506057	 0.00
				CHANNELS 3 Zrotation Xrotation Yrotation
				JOINT RightUpArm
				{
					OFFSET	 0.00	 1.24881979654096	 0.00
					CHANNELS 3 Zrotation Xrotation Yrotation
					JOINT RightForeArm
					{
						OFFSET	 0.00	2.59758046908119	 0.00
						CHANNELS 3 Zrotation Xrotation Yrotation
						JOINT RightHand
						{
							OFFSET	 0.00	2.45542024364365	 0.00
							CHANNELS 3 Zrotation Xrotation Yrotation
							JOINT RightHandThumb 
							{
								OFFSET	 0.00	0.00	 0.00
								CHANNELS 3 Zrotation Xrotation Yrotation
								End Site
								{
									OFFSET	 0.00	0.00	1.00000003353624
								}
							}
							JOINT R_Wrist_End 
							{
								OFFSET	 0.00	0.99999967115358	 0.00
								CHANNELS 3 Zrotation Xrotation Yrotation
								End Site 
								{
									OFFSET	 0.00	 0.00	 0.00
								}
							}
						}
					}
				}
			}
		}
	}
	JOINT LeftUpLeg
	{
		OFFSET	 1.2719394002717	 0.00	 0.00
		CHANNELS 3 Zrotation Xrotation Yrotation
		JOINT LeftLowLeg
		{
			OFFSET	 0.00	-4.3429100912261	 0.00
			CHANNELS 3 Zrotation Xrotation Yrotation
			JOINT LeftFoot
			{
				OFFSET	 0.00	-4.48767017425826	 0.00
				CHANNELS 3 Zrotation Xrotation Yrotation
				JOINT LeftToeBase
                {
                    OFFSET	 0.00	0.00	 1.51507020887566
                    CHANNELS 3 Zrotation Xrotation Yrotation
                    End Site 
                    {
                        OFFSET	 0.00	0.00	 0.75000010571191
                    }
                }
			}
		}
	}
	JOINT RightUpLeg
	{
		OFFSET	 -1.2719393604653	 0.00	 0.00
		CHANNELS 3 Zrotation Xrotation Yrotation
		JOINT RightLowLeg
		{
			OFFSET	 0.00	-4.3429100912261	 0.00
			CHANNELS 3 Zrotation Xrotation Yrotation
			JOINT RightFoot
			{
				OFFSET	 0.00	-4.48767017425826	 0.00
				CHANNELS 3 Zrotation Xrotation Yrotation
				JOINT RightToeBase
                {
                    OFFSET	 0.00	0.00	 1.51507020887566
                    CHANNELS 3 Zrotation Xrotation Yrotation
                    End Site 
                    {
                        OFFSET	 0.00	0.00	 0.749999965609858
                    }
                }   
			}
		}
	}
}
MOTION 
Frames:	17 
Frame Time: 0.02 
 1.559239959716797 21.34260009765625 9.326500244140625 50.0225 85.4762 -60.0124 2.49153 -13.8253 1.11832 -8.92955 13.393 2.41819 28.2983 60.1775 348.29 -38.4647 -80.5498 -384.761 -113.0534 -5.9957 367.636 -48.4643 6.79049 20.6497 0.0 18.9408 0.0 11.0537 -16.938 -3.66738 0.0 0.0 0.0 0.0 0.0 0.0 128.1037 -6.9267 -399.245 34.7279 21.921 -335.248 0.0 22.5652 0.0 5.14651 -11.7669 21.0392 0.0 0.0 0.0 0.0 0.0 0.0 -4.29842 3.08097 -369.004 0.0 16.1944 0.0 -15.2657 -7.8339005 12.2222 0.0 -20.33738 0.0 1.05746 1.9078 11.6078 0.0 19.5561 0.0 30.2049 -14.258699 -6.6441 0.0 -15.801107 0.0 
  1.5603799438476562 21.33080078125 9.314099731445312 48.2915 85.3944 -58.4196 1.97242 -14.7613 -0.032589 -5.96255 15.1761 2.72564 16.1123 59.9974 360.164 -51.7861 -77.9188 -402.615 -115.212 -5.6482 366.987 -47.7766 6.50438 21.4865 0.0 19.1851 0.0 9.03357 -16.3691 -5.95357 0.0 0.0 0.0 0.0 0.0 0.0 119.8267 -7.35244 -361.338 48.8196 -0.1267 -363.193 0.0 20.1064 0.0 1.63843 -10.1019 16.2199 0.0 0.0 0.0 0.0 0.0 0.0 -4.32242 3.37958 -368.886 0.0 16.127 0.0 -15.3426 -8.2493 12.1101 0.0 -20.2413 0.0 1.01211 2.15459 11.613 0.0 19.5299 0.0 30.6226 -14.5942 -6.12262 0.0 -15.571635 0.0 
  1.5607699584960937 21.33260009765625 9.313829956054688 47.6426 85.3851 -57.9124 2.03363 -14.7177 0.0223245 -6.01525 15.0842 2.7123 16.1456 60.0087 360.04 -51.8961 -77.8274 -402.728 -115.25 -5.6978 366.937 -47.7432 6.46723 21.3936 0.0 19.1656 0.0 9.05378 -16.3512 -5.79821 0.0 0.0 0.0 0.0 0.0 0.0 119.8145 -7.3281 -361.088 48.8564 -0.367336 -363.457 0.0 19.9423 0.0 1.6557 -10.0711 16.0219 0.0 0.0 0.0 0.0 0.0 0.0 -4.31634 3.42535 -368.777 0.0 16.137 0.0 -15.3455 -8.283501 12.1301 0.0 -20.20347 0.0 1.02181 2.16199 11.7093 0.0 19.5496 0.0 30.6107 -14.572901 -6.09704 0.0 -15.544117 0.0 
  1.5614500427246094 21.335 9.313610229492188 47.1498 85.3849 -57.521 2.10353 -14.6513 0.0931313 -6.08497 14.9569 2.69879 16.4362 60.0027 359.621 -52.0473 -77.7882 -402.785 -115.2679 -5.69425 366.921 -47.7037 6.42564 21.3697 0.0 19.1607 0.0 9.0795 -16.3327 -5.80178 0.0 0.0 0.0 0.0 0.0 0.0 119.8575 -7.32098 -361.076 48.8371 -0.463128 -363.532 0.0 19.8159 0.0 1.72848 -10.0542 15.8062 0.0 0.0 0.0 0.0 0.0 0.0 -4.31414 3.42835 -368.753 0.0 16.1934 0.0 -15.3665 -8.3337 12.1721 0.0 -20.19849 0.0 1.03168 2.15399 11.7618 0.0 19.5712 0.0 30.57 -14.5413 -6.0812 0.0 -15.529762 0.0 
  1.5618400573730469 21.33830078125 9.313150024414062 46.6633 85.3682 -57.1723 2.15014 -14.5786 0.154585 -6.13203 14.8697 2.7042 16.431 59.9329 359.553 -52.1443 -77.7323 -402.903 -115.2873 -5.73071 366.902 -47.6693 6.43897 21.3557 0.0 19.1604 0.0 9.04643 -16.3174 -5.7109 0.0 0.0 0.0 0.0 0.0 0.0 119.8849 -7.2882 -361.059 48.828 -0.530593 -363.62 0.0 19.6818 0.0 1.75769 -10.1913 15.8947 0.0 0.0 0.0 0.0 0.0 0.0 -4.32238 3.4436 -368.668 0.0 16.2325 0.0 -15.381 -8.3694 12.1992 0.0 -20.19793 0.0 1.03394 2.12934 11.8554 0.0 19.6249 0.0 30.6082 -14.5326 -6.01709 0.0 -15.537489 0.0 
  1.5623399353027343 21.34169921875 9.312680053710938 46.3702 85.363 -57.0086 2.19173 -14.5123 0.213099 -6.15868 14.7794 2.71506 16.6144 59.8762 359.247 -52.4224 -77.7007 -403.103 -115.3131 -5.75395 366.849 -47.6332 6.41887 21.4268 0.0 19.1609 0.0 9.05509 -16.2297 -5.38695 0.0 0.0 0.0 0.0 0.0 0.0 119.9229 -7.27658 -361.051 48.7926 -0.608472 -363.622 0.0 19.5824 0.0 1.86467 -10.075 15.7305 0.0 0.0 0.0 0.0 0.0 0.0 -4.32961 3.43582 -368.6 0.0 16.2773 0.0 -15.3946 -8.4098 12.2302 0.0 -20.1748 0.0 1.03817 2.0779 11.936 0.0 19.6946 0.0 30.6449 -14.525999 -5.95234 0.0 -15.509695 0.0 
  1.5627000427246094 21.3452001953125 9.312210083007812 46.2556 85.3552 -57.0036 2.22083 -14.4501 0.26038 -6.17671 14.6782 2.72203 16.9327 59.8411 358.784 -52.6754 -77.6747 -403.226 -115.344604 -5.74777 366.809 -47.5795 6.37308 21.5141 0.0 19.1692 0.0 9.01726 -16.1677 -5.30242 0.0 0.0 0.0 0.0 0.0 0.0 119.9479 -7.32323 -361.085 48.7801 -0.576277 -363.662 0.0 19.4513 0.0 1.88761 -10.1345 15.9042 0.0 0.0 0.0 0.0 0.0 0.0 -4.3389 3.41836 -368.508 0.0 16.312 0.0 -15.4066 -8.4265 12.2322 0.0 -20.20848 0.0 1.03809 2.01372 12.0224 0.0 19.7762 0.0 30.6276 -14.5238 -5.92803 0.0 -15.538852 0.0 
  1.5642999267578126 21.347900390625 9.312260131835938 46.6498 85.328 -57.4902 2.2344 -14.4572 0.303246 -6.21316 14.6355 2.74425 16.9559 59.8263 358.688 -52.782 -77.6111 -403.389 -115.3692 -5.70845 366.793 -47.5396 6.33171 21.6038 0.0 19.1838 0.0 9.03266 -16.141 -5.1479 0.0 0.0 0.0 0.0 0.0 0.0 119.9721 -7.31445 -361.089 48.755 -0.585835 -363.712 0.0 19.3013 0.0 1.88835 -10.2548 16.0053 0.0 0.0 0.0 0.0 0.0 0.0 -4.48872 3.50156 -369.346 0.0 16.1552 0.0 -15.5599 -8.621799 13.0005 0.0 -20.12258 0.0 0.980482 1.92546 12.0367 0.0 19.867 0.0 30.6438 -14.514799 -5.81818 0.0 -15.528034 0.0 
  1.564010009765625 21.352099609375 9.310670166015624 45.9793 85.3253 -56.8689 2.24851 -14.401 0.311483 -6.18665 14.6337 2.74809 17.186 59.7543 358.33 -52.6735 -77.5415 -403.246 -115.346 -5.66696 366.79 -47.5501 6.3351 21.6941 0.0 19.1984 0.0 9.05531 -16.1151 -4.97824 0.0 0.0 0.0 0.0 0.0 0.0 119.946396 -7.31679 -361.109 48.7859 -0.588452 -363.772 0.0 19.2586 0.0 1.92557 -10.2538 15.9169 0.0 0.0 0.0 0.0 0.0 0.0 -4.41216 3.34043 -368.655 0.0 16.4974 0.0 -15.7524 -8.625601 12.3251 0.0 -20.16316 0.0 1.02408 1.87235 12.0654 0.0 20.0105 0.0 30.5795 -14.531601 -5.81094 0.0 -15.5549965 0.0 
  1.5635299682617188 21.35610107421875 9.309210205078125 46.1776 85.3239 -57.1353 2.23125 -14.3803 0.308653 -6.16189 14.58 2.75182 17.4115 59.8628 358.028 -52.9054 -77.5125 -403.431 -115.370804 -5.66575 366.822 -47.4985 6.34313 21.7599 0.0 19.2285 0.0 9.00742 -16.0861 -5.0896 0.0 0.0 0.0 0.0 0.0 0.0 119.9709 -7.3004 -361.163 48.7554 -0.556601 -363.869 0.0 19.1624 0.0 1.9113 -10.3213 15.9818 0.0 0.0 0.0 0.0 0.0 0.0 -4.43049 3.23838 -368.604 0.0 16.6443 0.0 -15.5863 -8.6458 12.4034 0.0 -20.18175 0.0 1.03717 1.72885 12.1253 0.0 20.2184 0.0 30.5637 -14.5826 -5.76979 0.0 -15.577367 0.0 
  1.5639500427246094 21.358701171875 9.308670043945312 47.301 85.2983 -58.3456 2.19907 -14.4812 0.331181 -6.17763 14.6243 2.80881 17.735 60.0497 357.624 -53.1884 -77.4865 -403.723 -115.4366 -5.60443 366.863 -47.3962 6.34465 21.7549 0.0 19.2653 0.0 8.92185 -16.0702 -5.18407 0.0 0.0 0.0 0.0 0.0 0.0 120.045 -7.28758 -361.203 48.6798 -0.517193 -363.886 0.0 19.0996 0.0 2.02376 -10.2081 15.9431 0.0 0.0 0.0 0.0 0.0 0.0 -4.55113 3.26633 -369.102 0.0 16.4747 0.0 -15.4164 -8.6716 12.9687 0.0 -20.18679 0.0 0.971146 1.51938 12.1244 0.0 20.4603 0.0 30.5745 -14.612301 -5.6305 0.0 -15.602012 0.0 
  1.5637300109863281 21.36030029296875 9.307540283203124 48.7702 85.3155 -59.8799 2.20929 -14.6267 0.368841 -6.24119 14.6063 2.83156 18.3517 60.3538 356.893 -53.283 -77.439 -403.804 -115.4284 -5.53925 366.899 -47.3363 6.29032 21.851 0.0 19.2834 0.0 8.87671 -16.0669 -5.24393 0.0 0.0 0.0 0.0 0.0 0.0 120.1259 -7.26503 -361.4 48.645 -0.370155 -363.781 0.0 18.974 0.0 2.02835 -10.3522 15.882 0.0 0.0 0.0 0.0 0.0 0.0 -4.54697 3.17027 -368.73 0.0 16.4041 0.0 -15.6067 -8.6168 12.5859 0.0 -20.16686 0.0 0.918308 1.30124 12.03 0.0 20.631 0.0 30.6211 -14.6273 -5.43155 0.0 -15.553766 0.0 
  1.5637199401855468 21.36330078125 9.306820068359375 50.8262 85.3798 -61.9522 2.27736 -14.8046 0.424756 -6.36106 14.5574 2.81557 19.3304 60.8908 355.757 -53.926 -77.4267 -404.372 -115.4256 -5.42589 366.794 -47.2074 6.07398 22.1161 0.0 19.3424 0.0 8.77899 -15.9689 -5.33205 0.0 0.0 0.0 0.0 0.0 0.0 120.2967 -7.25065 -361.413 48.5433 -0.2575 -363.667 0.0 18.6199 0.0 2.24383 -10.1712 16.0021 0.0 0.0 0.0 0.0 0.0 0.0 -4.53027 2.99848 -368.49 0.0 16.3395 0.0 -15.6539 -8.546499 12.3477 0.0 -20.17644 0.0 0.870342 1.05635 11.8432 0.0 20.7062 0.0 30.5704 -14.5625 -5.26543 0.0 -15.585035 0.0 
  1.5642399597167969 21.37199951171875 9.305419921875 55.506 85.5206 -66.608 2.34029 -14.9396 0.479985 -6.47808 14.2244 2.74385 20.5517 61.5418 354.327 -54.8181 -77.3871 -405.081 -115.5174 -5.41959 366.371 -46.9301 5.64612 22.7148 0.0 19.4381 0.0 8.59367 -15.8056 -5.16746 0.0 0.0 0.0 0.0 0.0 0.0 120.5343 -7.17514 -360.761 48.3953 -0.687342 -363.861 0.0 18.1169 0.0 2.63469 -10.1733 16.5532 0.0 0.0 0.0 0.0 0.0 0.0 -4.52059 2.53273 -368.279 0.0 16.352 0.0 -15.6996 -8.489599 12.0923 0.0 -20.13138 0.0 0.82454 0.550205 11.652 0.0 20.8099 0.0 30.6291 -14.5366 -5.05185 0.0 -15.5926 0.0 
  1.5661700439453126 21.3906005859375 9.303389892578124 62.2412 85.6788 -73.3258 2.39027 -14.8229 0.547687 -6.51724 13.5042 2.62519 22.1141 62.1238 352.4 -55.0953 -77.1797 -405.082 -115.6632 -5.41809 365.53 -46.6043 4.82614 23.778 0.0 19.6051 0.0 8.6088 -15.5987 -4.53639 0.0 0.0 0.0 0.0 0.0 0.0 120.6853 -7.08422 -359.679 48.3029 -1.36234 -364.26 0.0 17.3342 0.0 3.44119 -10.3482 16.5562 0.0 0.0 0.0 0.0 0.0 0.0 -4.54062 1.78745 -368.257 0.0 16.5301 0.0 -15.6765 -8.4890995 12.0354 0.0 -20.14618 0.0 0.800889 -0.203753 11.525 0.0 20.9969 0.0 30.7174 -14.530899 -4.85232 0.0 -15.558873 0.0 
  1.5704200744628907 21.4202001953125 9.302479858398437 71.2871 85.8141 -82.4005 2.38705 -14.4081 0.601192 -6.36107 12.5212 2.50785 23.2447 62.4968 350.908 -55.6588 -76.9496 -405.457 -115.882 -5.47835 364.82 -46.2611 4.16965 24.8997 0.0 19.8202 0.0 8.74406 -15.3685 -4.77918 0.0 0.0 0.0 0.0 0.0 0.0 120.6019 -6.64779 -358.298 48.3327 -2.48512 -364.325 0.0 16.532 0.0 4.20352 -10.7668 15.8171 0.0 0.0 0.0 0.0 0.0 0.0 -4.53716 0.785656 -368.135 0.0 16.796 0.0 -15.7199 -8.463499 11.8773 0.0 -20.13113 0.0 0.792929 -1.20034 11.4015 0.0 21.2142 0.0 30.8296 -14.438999 -4.63748 0.0 -15.568629 0.0 
  1.5756900024414062 21.4614990234375 9.303280029296875 82.7222 85.934 -93.9693 2.43331 -13.8041 0.680794 -6.07816 11.5232 2.40798 24.3488 62.4412 349.35 -56.7496 -76.8602 -406.235 -115.9596 -5.52108 364.385 -46.1003 3.78133 25.9759 0.0 20.1135 0.0 9.00331 -14.8706 -4.29013 0.0 0.0 0.0 0.0 0.0 0.0 120.4556 -6.89441 -359.076 48.2896 -0.8436 -363.887 0.0 15.3296 0.0 4.33126 -11.6271 15.0477 0.0 0.0 0.0 0.0 0.0 0.0 -4.38108 -0.549763 -367.422 0.0 17.291 0.0 -15.6777 -8.345301 11.3355 0.0 -20.12694 0.0 0.864484 -2.37027 11.2656 0.0 21.2848 0.0 30.9406 -14.1514 -4.38954 0.0 -15.54788 0.0 
